<?xml version="1.0" encoding="UTF-8"?>
<svg version="1.1" viewBox="0 0 31 31" xmlns="http://www.w3.org/2000/svg">
 <defs>
  <filter id="c" x="-.36" y="-.36" width="1.72" height="1.72" color-interpolation-filters="sRGB">
   <feGaussianBlur stdDeviation="2.46429"/>
  </filter>
  <linearGradient id="d" x1=".55698" x2="30.729" y1="16.092" y2="16.092" gradientUnits="userSpaceOnUse">
   <stop stop-color="#bb2c29" offset="0"/>
   <stop stop-color="#f55d4f" offset="1"/>
  </linearGradient>
 </defs>
 <path transform="matrix(0 -1 1 0 -.59223 31.143)" d="m29.979 22.014-8.387 8.403-11.871 0.011-8.4028-8.386-0.0112-11.872 8.3866-8.4025 11.871-0.0112 8.403 8.3867z" fill="url(#d)" stroke="#7b0000" stroke-width="1.5"/>
 <path transform="matrix(1.2579 0 0 1.1774 -129.32 -835.71)" d="m122.14 721.65a8.2143 8.2143 0 1 1 -16.429 0 8.2143 8.2143 0 1 1 16.429 0z" fill="#ff1300" fill-opacity=".75" fill-rule="evenodd" filter="url(#c)"/>
 <g transform="matrix(.86817 0 0 1.1518 -.24506 -.20422)" opacity=".3955">
  <path d="m3.7002 15.095 1.5199-0.17956c0.17101 1.2014 0.73107 1.802 1.6802 1.802 0.47028 2e-6 0.84009-0.12184 1.1094-0.36554 0.2694-0.248 0.404-0.554 0.404-0.917 0-0.214-0.047-0.395-0.141-0.545-0.0941-0.15-0.2373-0.272-0.4297-0.366-0.1924-0.098-0.6584-0.26-1.398-0.487-0.6627-0.201-1.148-0.419-1.4558-0.654s-0.5536-0.543-0.7375-0.924c-0.1795-0.384-0.2693-0.797-0.2693-1.237-7e-7 -0.51303 0.11543-0.97476 0.3463-1.3852 0.23514-0.41042 0.55792-0.72038 0.96835-0.92988 0.41043-0.20948 0.91705-0.31422 1.5199-0.31423 0.90636 9.6e-6 1.6139 0.24584 2.1227 0.73749 0.5088 0.4914 0.7781 1.1948 0.808 2.1098l-1.5583 0.083c-0.0684-0.504-0.2159-0.857-0.4425-1.058s-0.5494-0.301-0.9684-0.301c-0.41898 8e-6 -0.74177 0.08765-0.96835 0.26293-0.22659 0.1753-0.33989 0.39333-0.33989 0.65412-2.2e-6 0.25652 0.1026 0.47243 0.30782 0.64771 0.20521 0.17529 0.67763 0.36768 1.4173 0.57716 0.78237 0.2266 1.3467 0.46601 1.693 0.71825 0.35057 0.24797 0.61777 0.57076 0.80162 0.96835 0.18383 0.39333 0.27575 0.87216 0.27576 1.4365-6.7e-6 0.81658-0.25225 1.5028-0.75673 2.0586-0.50022 0.55579-1.2847 0.83368-2.3536 0.83368-1.8897 0-2.9414-1.0752-3.1552-3.2257"/>
  <path d="m13.012 18.154v-7.811h-2.2894v-1.5904h6.1244v1.5904h-2.283v7.811h-1.5519"/>
  <path d="m17.392 13.511c-1e-6 -1.1201 0.1646-2.0414 0.4938-2.764 0.33347-0.72679 0.76741-1.2676 1.3018-1.6225 0.53441-0.35484 1.1821-0.53226 1.9431-0.53227 1.103 9.6e-6 2.0008 0.42113 2.6934 1.2633 0.69687 0.84224 1.0453 2.0415 1.0453 3.5977-8e-6 1.5733-0.36768 2.8025-1.103 3.6874-0.64558 0.78238-1.522 1.1736-2.6293 1.1736-1.1159 0-1.9966-0.38691-2.6421-1.1607-0.73535-0.88498-1.103-2.0992-1.103-3.6426m1.6032-0.06413c-2e-6 1.0817 0.20521 1.894 0.61564 2.4369 0.41042 0.53869 0.91918 0.80803 1.5263 0.80803 0.61136 1e-6 1.118-0.2672 1.5199-0.80162 0.40187-0.53868 0.60281-1.3638 0.60282-2.4754-6e-6 -1.0902-0.19667-1.8961-0.58999-2.4177-0.38906-0.52158-0.89995-0.78237-1.5327-0.78238-0.63275 8e-6 -1.1479 0.26294-1.5455 0.78879-0.3976 0.52587-0.5964 1.3403-0.5964 2.4433"/>
  <path d="m26.101 18.154v-9.4014h2.501c0.93201 9.4e-6 1.5412 0.0449 1.8277 0.13467 0.45745 0.14537 0.83368 0.45533 1.1287 0.92988 0.29926 0.47457 0.4489 1.0859 0.44891 1.8341-7e-6 0.67978-0.12826 1.2505-0.38478 1.7123-0.25652 0.45746-0.57717 0.78024-0.96194 0.96835-0.38478 0.18384-1.0475 0.27576-1.988 0.27576h-1.0197v3.5464h-1.5519m1.5519-7.811v2.6678h0.85934c0.57716 5e-6 0.96835-0.04061 1.1736-0.12185 0.20948-0.08123 0.3805-0.22658 0.51304-0.43608 0.13253-0.21376 0.1988-0.47455 0.1988-0.78238-5e-6 -0.31209-0.06841-0.57502-0.20521-0.78879-0.137-0.214-0.306-0.357-0.507-0.43-0.2-0.072-0.626-0.109-1.276-0.109h-0.75673"/>
 </g>
 <g transform="scale(.86817 1.1518)" fill="#fff">
  <path d="m3.7002 15.095 1.5199-0.17956c0.17101 1.2014 0.73107 1.802 1.6802 1.802 0.47028 2e-6 0.84009-0.12184 1.1094-0.36554 0.2694-0.248 0.404-0.554 0.404-0.917 0-0.214-0.047-0.395-0.141-0.545-0.0941-0.15-0.2373-0.272-0.4297-0.366-0.1924-0.098-0.6584-0.26-1.398-0.487-0.6627-0.201-1.148-0.419-1.4558-0.654s-0.5536-0.543-0.7375-0.924c-0.1795-0.384-0.2693-0.797-0.2693-1.237-7e-7 -0.51303 0.11543-0.97476 0.3463-1.3852 0.23514-0.41042 0.55792-0.72038 0.96835-0.92988 0.41043-0.20948 0.91705-0.31422 1.5199-0.31423 0.90636 9.6e-6 1.6139 0.24584 2.1227 0.73749 0.5088 0.4914 0.7781 1.1948 0.808 2.1098l-1.5583 0.083c-0.0684-0.504-0.2159-0.857-0.4425-1.058s-0.5494-0.301-0.9684-0.301c-0.41898 8e-6 -0.74177 0.08765-0.96835 0.26293-0.22659 0.1753-0.33989 0.39333-0.33989 0.65412-2.2e-6 0.25652 0.1026 0.47243 0.30782 0.64771 0.20521 0.17529 0.67763 0.36768 1.4173 0.57716 0.78237 0.2266 1.3467 0.46601 1.693 0.71825 0.35057 0.24797 0.61777 0.57076 0.80162 0.96835 0.18383 0.39333 0.27575 0.87216 0.27576 1.4365-6.7e-6 0.81658-0.25225 1.5028-0.75673 2.0586-0.50022 0.55579-1.2847 0.83368-2.3536 0.83368-1.8897 0-2.9414-1.0752-3.1552-3.2257"/>
  <path d="m13.012 18.154v-7.811h-2.2894v-1.5904h6.1244v1.5904h-2.283v7.811h-1.5519"/>
  <path d="m17.392 13.511c-1e-6 -1.1201 0.1646-2.0414 0.4938-2.764 0.33347-0.72679 0.76741-1.2676 1.3018-1.6225 0.53441-0.35484 1.1821-0.53226 1.9431-0.53227 1.103 9.6e-6 2.0008 0.42113 2.6934 1.2633 0.69687 0.84224 1.0453 2.0415 1.0453 3.5977-8e-6 1.5733-0.36768 2.8025-1.103 3.6874-0.64558 0.78238-1.522 1.1736-2.6293 1.1736-1.1159 0-1.9966-0.38691-2.6421-1.1607-0.73535-0.88498-1.103-2.0992-1.103-3.6426m1.6032-0.06413c-2e-6 1.0817 0.20521 1.894 0.61564 2.4369 0.41042 0.53869 0.91918 0.80803 1.5263 0.80803 0.61136 1e-6 1.118-0.2672 1.5199-0.80162 0.40187-0.53868 0.60281-1.3638 0.60282-2.4754-6e-6 -1.0902-0.19667-1.8961-0.58999-2.4177-0.38906-0.52158-0.89995-0.78237-1.5327-0.78238-0.63275 8e-6 -1.1479 0.26294-1.5455 0.78879-0.3976 0.52587-0.5964 1.3403-0.5964 2.4433"/>
  <path d="m26.101 18.154v-9.4014h2.501c0.93201 9.4e-6 1.5412 0.0449 1.8277 0.13467 0.45745 0.14537 0.83368 0.45533 1.1287 0.92988 0.29926 0.47457 0.4489 1.0859 0.44891 1.8341-7e-6 0.67978-0.12826 1.2505-0.38478 1.7123-0.25652 0.45746-0.57717 0.78024-0.96194 0.96835-0.38478 0.18384-1.0475 0.27576-1.988 0.27576h-1.0197v3.5464h-1.5519m1.5519-7.811v2.6678h0.85934c0.57716 5e-6 0.96835-0.04061 1.1736-0.12185 0.20948-0.08123 0.3805-0.22658 0.51304-0.43608 0.13253-0.21376 0.1988-0.47455 0.1988-0.78238-5e-6 -0.31209-0.06841-0.57502-0.20521-0.78879-0.137-0.214-0.306-0.357-0.507-0.43-0.2-0.072-0.626-0.109-1.276-0.109h-0.75673"/>
 </g>
</svg>
